<svg xmlns="http://www.w3.org/2000/svg" xmlns:xlink="http://www.w3.org/1999/xlink" viewBox="0 0 117 28"><path d="M 55.563 3.337 L 53.355 8.97 C 53.225 9.256 53.163 9.435 53.163 9.513 C 53.163 9.731 53.336 9.885 53.686 9.978 L 53.686 10.205 L 50.576 10.205 L 50.576 9.978 C 50.893 9.915 51.051 9.755 51.051 9.493 C 51.051 9.421 50.984 9.212 50.855 8.859 L 48.085 1.666 C 47.946 1.308 47.826 1.066 47.711 0.94 C 47.6 0.814 47.437 0.731 47.226 0.688 L 47.226 0.46 L 50.586 0.46 L 50.586 0.688 C 50.288 0.756 50.139 0.896 50.139 1.109 C 50.139 1.221 50.178 1.376 50.255 1.579 L 52.165 6.737 L 54.233 1.55 C 54.324 1.327 54.368 1.177 54.368 1.109 C 54.368 0.891 54.209 0.751 53.893 0.688 L 53.893 0.46 L 57.406 0.46 L 57.406 0.688 C 57.084 0.775 56.926 0.93 56.926 1.153 C 56.926 1.23 56.964 1.371 57.046 1.584 L 59.018 6.742 L 60.924 1.666 C 61.024 1.414 61.072 1.225 61.072 1.104 C 61.072 0.896 60.904 0.756 60.564 0.688 L 60.564 0.46 L 63.885 0.46 L 63.885 0.688 C 63.65 0.756 63.487 0.838 63.395 0.944 C 63.304 1.051 63.189 1.288 63.04 1.666 L 60.271 8.859 C 60.137 9.203 60.074 9.43 60.074 9.546 C 60.074 9.779 60.242 9.924 60.578 9.982 L 60.578 10.21 L 57.425 10.21 L 57.425 9.982 C 57.756 9.929 57.919 9.769 57.919 9.503 C 57.919 9.411 57.847 9.198 57.698 8.859 L 55.568 3.337 Z" fill="rgb(136,211,226)"></path><path d="M 67.153 5.928 L 67.153 8.602 L 73.368 8.602 C 73.508 8.602 73.618 8.568 73.695 8.5 C 73.772 8.432 73.834 8.316 73.877 8.142 L 74.103 8.142 L 74.103 10.665 L 73.877 10.665 C 73.829 10.496 73.767 10.375 73.695 10.307 C 73.618 10.239 73.512 10.205 73.368 10.205 L 64.59 10.205 L 64.59 9.978 C 64.758 9.929 64.878 9.866 64.945 9.793 C 65.013 9.716 65.046 9.605 65.046 9.459 L 65.046 1.206 C 65.046 1.061 65.013 0.944 64.945 0.872 C 64.878 0.794 64.763 0.736 64.59 0.688 L 64.59 0.46 L 73.196 0.46 C 73.335 0.46 73.445 0.426 73.522 0.358 C 73.599 0.291 73.661 0.174 73.704 0.005 L 73.93 0.005 L 73.93 2.528 L 73.704 2.528 C 73.656 2.359 73.594 2.243 73.522 2.175 C 73.445 2.107 73.34 2.073 73.196 2.073 L 67.148 2.073 L 67.148 4.388 L 71.07 4.388 C 71.214 4.388 71.319 4.354 71.396 4.286 C 71.473 4.219 71.535 4.102 71.583 3.928 L 71.809 3.928 L 71.809 6.393 L 71.583 6.393 C 71.535 6.229 71.473 6.108 71.396 6.04 C 71.319 5.972 71.214 5.938 71.07 5.938 L 67.148 5.938 Z" fill="rgb(136,211,226)"></path><path d="M 82.684 7.72 L 78.293 7.72 L 77.645 9.091 C 77.554 9.28 77.511 9.43 77.511 9.542 C 77.511 9.75 77.669 9.895 77.986 9.978 L 77.986 10.205 L 74.789 10.205 L 74.789 9.978 C 74.977 9.939 75.121 9.871 75.221 9.779 C 75.322 9.682 75.433 9.498 75.562 9.222 L 79.114 1.729 C 79.229 1.492 79.282 1.298 79.282 1.158 C 79.282 0.94 79.142 0.78 78.869 0.688 L 78.869 0.46 L 82.296 0.46 L 82.296 0.688 C 82.017 0.77 81.878 0.911 81.878 1.109 C 81.878 1.25 81.921 1.405 82.012 1.579 L 85.694 9.091 C 85.852 9.411 85.986 9.629 86.106 9.745 C 86.222 9.861 86.385 9.939 86.581 9.978 L 86.581 10.205 L 83.025 10.205 L 83.025 9.978 C 83.337 9.924 83.495 9.779 83.495 9.537 C 83.495 9.435 83.448 9.29 83.356 9.091 L 82.694 7.72 Z M 82.075 6.384 L 80.51 2.911 L 78.917 6.384 Z" fill="rgb(136,211,226)"></path><path d="M 89.96 8.602 L 95.897 8.602 C 96.046 8.602 96.156 8.568 96.228 8.5 C 96.305 8.432 96.367 8.316 96.411 8.142 L 96.636 8.142 L 96.636 10.665 L 96.411 10.665 C 96.362 10.496 96.3 10.375 96.228 10.307 C 96.151 10.239 96.041 10.205 95.897 10.205 L 87.397 10.205 L 87.397 9.978 C 87.565 9.929 87.685 9.866 87.753 9.793 C 87.819 9.716 87.853 9.605 87.853 9.459 L 87.853 1.206 C 87.853 1.061 87.819 0.944 87.753 0.872 C 87.685 0.794 87.57 0.736 87.397 0.688 L 87.397 0.46 L 90.411 0.46 L 90.411 0.688 C 90.243 0.731 90.123 0.789 90.056 0.872 C 89.989 0.949 89.96 1.066 89.96 1.211 Z" fill="rgb(136,211,226)"></path><path d="M 101.604 2.063 L 101.604 9.454 C 101.604 9.6 101.637 9.716 101.704 9.789 C 101.772 9.866 101.887 9.929 102.06 9.973 L 102.06 10.2 L 99.045 10.2 L 99.045 9.973 C 99.213 9.924 99.334 9.861 99.401 9.789 C 99.468 9.711 99.501 9.6 99.501 9.454 L 99.501 2.063 L 96.502 2.063 C 96.363 2.063 96.252 2.097 96.176 2.16 C 96.099 2.228 96.036 2.344 95.993 2.519 L 95.768 2.519 L 95.768 0 L 95.993 0 C 96.046 0.174 96.108 0.291 96.18 0.358 C 96.252 0.426 96.363 0.455 96.502 0.455 L 104.608 0.455 C 104.752 0.455 104.868 0.421 104.939 0.358 C 105.016 0.291 105.078 0.174 105.121 0 L 105.347 0 L 105.347 2.523 L 105.121 2.523 C 105.074 2.349 105.011 2.228 104.939 2.165 C 104.862 2.102 104.752 2.068 104.608 2.068 L 101.613 2.068 Z" fill="rgb(136,211,226)"></path><path d="M 114.437 5.953 L 108.865 5.953 L 108.865 9.469 C 108.865 9.614 108.898 9.721 108.966 9.803 C 109.033 9.881 109.153 9.944 109.316 9.987 L 109.316 10.215 L 106.302 10.215 L 106.302 9.987 C 106.47 9.939 106.59 9.876 106.657 9.803 C 106.725 9.726 106.758 9.619 106.758 9.474 L 106.758 1.201 C 106.758 1.056 106.725 0.949 106.657 0.872 C 106.59 0.794 106.475 0.736 106.302 0.688 L 106.302 0.46 L 109.316 0.46 L 109.316 0.688 C 109.148 0.731 109.028 0.789 108.961 0.872 C 108.894 0.949 108.86 1.061 108.86 1.206 L 108.86 4.349 L 114.432 4.349 L 114.432 1.201 C 114.432 1.056 114.398 0.949 114.332 0.867 C 114.264 0.789 114.15 0.727 113.976 0.683 L 113.976 0.455 L 116.99 0.455 L 116.99 0.683 C 116.822 0.731 116.703 0.794 116.635 0.867 C 116.568 0.944 116.535 1.051 116.535 1.196 L 116.535 9.459 C 116.535 9.605 116.568 9.711 116.635 9.789 C 116.703 9.866 116.818 9.929 116.99 9.973 L 116.99 10.2 L 113.976 10.2 L 113.976 9.973 C 114.139 9.929 114.26 9.871 114.326 9.789 C 114.394 9.711 114.428 9.6 114.428 9.454 L 114.428 5.938 Z" fill="rgb(136,211,226)"></path><path d="M 44.63 23.563 L 44.63 27.075 C 44.63 27.22 44.663 27.336 44.73 27.414 C 44.798 27.491 44.918 27.554 45.081 27.598 L 45.081 27.826 L 42.067 27.826 L 42.067 27.598 C 42.235 27.55 42.355 27.487 42.422 27.414 C 42.489 27.336 42.523 27.225 42.523 27.075 L 42.523 18.826 C 42.523 18.676 42.489 18.565 42.422 18.492 C 42.355 18.415 42.24 18.357 42.067 18.308 L 42.067 18.081 L 50.619 18.081 C 50.763 18.081 50.869 18.047 50.946 17.979 C 51.022 17.911 51.085 17.795 51.128 17.62 L 51.354 17.62 L 51.354 20.144 L 51.128 20.144 C 51.08 19.97 51.018 19.848 50.946 19.785 C 50.869 19.722 50.763 19.689 50.619 19.689 L 44.63 19.689 L 44.63 22.018 L 48.546 22.018 C 48.695 22.018 48.805 21.984 48.877 21.917 C 48.954 21.849 49.011 21.728 49.059 21.563 L 49.285 21.563 L 49.285 24.028 L 49.059 24.028 C 49.011 23.859 48.949 23.743 48.877 23.675 C 48.8 23.607 48.69 23.573 48.546 23.573 L 44.63 23.573 Z" fill="rgb(31,37,46)"></path><path d="M 58.442 25.341 L 54.051 25.341 L 53.403 26.712 C 53.312 26.901 53.269 27.051 53.269 27.162 C 53.269 27.37 53.427 27.516 53.744 27.598 L 53.744 27.826 L 50.547 27.826 L 50.547 27.598 C 50.734 27.559 50.878 27.491 50.979 27.399 C 51.08 27.303 51.19 27.119 51.32 26.842 L 54.872 19.35 C 54.987 19.112 55.039 18.923 55.039 18.778 C 55.039 18.56 54.905 18.4 54.627 18.308 L 54.627 18.081 L 58.053 18.081 L 58.053 18.308 C 57.775 18.391 57.636 18.531 57.636 18.73 C 57.636 18.87 57.679 19.025 57.77 19.199 L 61.452 26.716 C 61.605 27.036 61.744 27.254 61.864 27.37 C 61.979 27.487 62.143 27.564 62.339 27.603 L 62.339 27.831 L 58.783 27.831 L 58.783 27.603 C 59.095 27.55 59.253 27.404 59.253 27.162 C 59.253 27.06 59.205 26.915 59.114 26.716 L 58.452 25.346 Z M 57.833 24.004 L 56.268 20.531 L 54.675 24.004 Z" fill="rgb(31,37,46)"></path><path d="M 65.718 23.849 L 65.718 27.085 C 65.718 27.225 65.752 27.336 65.819 27.414 C 65.886 27.491 66.006 27.554 66.169 27.598 L 66.169 27.826 L 63.155 27.826 L 63.155 27.598 C 63.323 27.55 63.443 27.487 63.511 27.414 C 63.578 27.336 63.611 27.225 63.611 27.085 L 63.611 18.827 C 63.611 18.676 63.578 18.565 63.511 18.492 C 63.443 18.415 63.328 18.357 63.155 18.308 L 63.155 18.081 L 69.198 18.081 C 69.932 18.081 70.518 18.124 70.95 18.211 C 71.382 18.299 71.756 18.449 72.077 18.662 C 72.452 18.909 72.73 19.243 72.913 19.669 C 73.085 20.081 73.177 20.517 73.177 20.982 C 73.177 22.57 72.303 23.505 70.551 23.777 L 72.428 26.469 C 72.759 26.939 72.999 27.244 73.153 27.38 C 73.306 27.516 73.493 27.588 73.714 27.608 L 73.714 27.835 L 70.225 27.835 L 70.225 27.608 C 70.465 27.569 70.585 27.482 70.585 27.351 C 70.585 27.264 70.474 27.06 70.254 26.731 L 68.295 23.859 L 65.718 23.859 Z M 65.718 22.241 L 68.972 22.241 C 69.452 22.241 69.793 22.227 69.99 22.198 C 70.186 22.168 70.369 22.11 70.537 22.018 C 70.897 21.825 71.074 21.471 71.074 20.962 C 71.074 20.454 70.897 20.1 70.537 19.907 C 70.369 19.815 70.186 19.752 69.995 19.723 C 69.803 19.698 69.462 19.684 68.972 19.684 L 65.718 19.684 Z" fill="rgb(31,37,46)"></path><path d="M 80.827 27.826 L 77.265 21.088 L 77.265 27.075 C 77.265 27.22 77.299 27.336 77.366 27.414 C 77.433 27.491 77.549 27.55 77.721 27.598 L 77.721 27.826 L 74.885 27.826 L 74.885 27.598 C 75.053 27.55 75.173 27.487 75.24 27.414 C 75.307 27.336 75.341 27.225 75.341 27.075 L 75.341 18.817 C 75.341 18.672 75.307 18.565 75.24 18.487 C 75.173 18.41 75.058 18.352 74.885 18.303 L 74.885 18.076 L 78.609 18.076 L 78.609 18.303 C 78.389 18.362 78.273 18.492 78.273 18.696 C 78.273 18.793 78.307 18.899 78.374 19.025 L 81.009 24.067 L 83.678 19.112 C 83.797 18.894 83.855 18.734 83.855 18.633 C 83.855 18.439 83.735 18.328 83.5 18.303 L 83.5 18.076 L 87.152 18.076 L 87.152 18.303 C 86.985 18.352 86.864 18.415 86.798 18.487 C 86.73 18.565 86.696 18.672 86.696 18.817 L 86.696 27.075 C 86.696 27.22 86.73 27.336 86.798 27.414 C 86.864 27.491 86.98 27.55 87.152 27.598 L 87.152 27.826 L 84.138 27.826 L 84.138 27.598 C 84.301 27.554 84.421 27.496 84.489 27.414 C 84.556 27.336 84.589 27.22 84.589 27.075 L 84.589 21.088 Z" fill="rgb(31,37,46)"></path><path d="M 89.336 27.075 L 89.336 18.817 C 89.336 18.672 89.302 18.565 89.235 18.487 C 89.168 18.41 89.053 18.352 88.88 18.303 L 88.88 18.076 L 91.894 18.076 L 91.894 18.303 C 91.726 18.347 91.606 18.405 91.539 18.483 C 91.471 18.56 91.439 18.672 91.439 18.817 L 91.439 27.075 C 91.439 27.22 91.471 27.336 91.539 27.414 C 91.606 27.491 91.726 27.554 91.889 27.598 L 91.889 27.826 L 88.875 27.826 L 88.875 27.598 C 89.043 27.55 89.164 27.487 89.23 27.414 C 89.298 27.336 89.331 27.225 89.331 27.075 Z" fill="rgb(31,37,46)"></path><path d="M 96.021 21.146 L 96.021 27.075 C 96.021 27.22 96.055 27.336 96.122 27.414 C 96.19 27.491 96.305 27.55 96.477 27.598 L 96.477 27.826 L 93.641 27.826 L 93.641 27.598 C 93.809 27.55 93.929 27.487 93.996 27.414 C 94.064 27.336 94.097 27.225 94.097 27.075 L 94.097 18.817 C 94.097 18.672 94.064 18.565 93.996 18.487 C 93.929 18.41 93.814 18.352 93.641 18.303 L 93.641 18.076 L 96.924 18.076 L 96.924 18.303 C 96.723 18.357 96.621 18.463 96.621 18.633 C 96.621 18.744 96.689 18.87 96.818 19.011 L 102.151 24.605 L 102.151 18.822 C 102.151 18.676 102.117 18.57 102.05 18.492 C 101.982 18.415 101.867 18.357 101.695 18.308 L 101.695 18.081 L 104.536 18.081 L 104.536 18.308 C 104.367 18.357 104.248 18.42 104.18 18.492 C 104.114 18.57 104.08 18.676 104.08 18.822 L 104.08 27.08 C 104.08 27.225 104.114 27.341 104.18 27.419 C 104.248 27.496 104.363 27.554 104.536 27.603 L 104.536 27.831 L 101.493 27.831 L 101.493 27.603 C 101.689 27.559 101.791 27.458 101.791 27.293 C 101.791 27.196 101.676 27.031 101.445 26.794 L 96.031 21.151 Z" fill="rgb(31,37,46)"></path><path d="M 114.806 24.319 L 112.421 24.319 C 112.278 24.319 112.167 24.353 112.09 24.421 C 112.018 24.488 111.956 24.605 111.907 24.779 L 111.682 24.779 L 111.682 22.508 L 111.907 22.508 C 111.956 22.682 112.013 22.803 112.09 22.866 C 112.162 22.929 112.272 22.963 112.416 22.963 L 116.995 22.963 L 116.995 23.19 C 116.827 23.239 116.711 23.302 116.645 23.379 C 116.577 23.457 116.544 23.568 116.544 23.714 L 116.544 25.714 C 116.544 25.864 116.577 25.975 116.639 26.048 C 116.702 26.126 116.822 26.189 116.995 26.232 L 116.995 26.411 C 115.162 27.467 113.381 27.995 111.663 27.995 C 110.103 27.995 108.831 27.622 107.843 26.872 C 106.604 25.927 105.986 24.619 105.986 22.943 C 105.986 21.384 106.537 20.139 107.641 19.214 C 108.687 18.337 110.079 17.901 111.816 17.901 C 112.369 17.901 112.887 17.955 113.376 18.056 C 113.866 18.158 114.417 18.332 115.041 18.575 C 115.363 18.705 115.593 18.768 115.728 18.768 C 115.829 18.768 115.944 18.715 116.074 18.604 L 116.27 18.71 L 115.133 21.045 L 114.926 20.938 C 114.926 20.783 114.903 20.672 114.864 20.599 C 114.826 20.531 114.739 20.444 114.61 20.347 C 114.322 20.129 113.899 19.945 113.343 19.79 C 112.786 19.635 112.263 19.558 111.764 19.558 C 110.756 19.558 109.916 19.844 109.254 20.415 C 108.505 21.059 108.131 21.917 108.131 22.977 C 108.131 24.038 108.495 24.837 109.229 25.467 C 109.901 26.048 110.784 26.339 111.879 26.339 C 112.412 26.339 112.94 26.276 113.458 26.15 C 113.976 26.024 114.427 25.859 114.801 25.641 L 114.801 24.314 Z" fill="rgb(31,37,46)"></path><path d="M 26.085 15.669 L 18.113 1.739 L 17.201 0.145 L 10.151 0.145 L 18.113 14.07 L 26.085 28 L 34.047 14.07 L 37.013 8.893 L 29.958 8.893 Z" fill="rgb(232,181,97)"></path><path d="M 31.475 0.145 L 24.813 0.145 L 23.901 1.739 L 15.934 15.669 L 7.967 1.739 L 7.055 0.145 L 0 0.145 L 7.967 14.07 L 15.934 28 L 23.901 14.07 L 28.254 6.456 L 30.932 6.456 L 38.534 6.456 L 42.144 0.145 L 31.863 0.145 Z" fill="rgb(232,181,97)"></path></svg>