<svg xmlns:xlink="http://www.w3.org/1999/xlink" xmlns="http://www.w3.org/2000/svg" style="width:100%;height:100%" width="32.5"  height="56" ><defs><svg viewBox="0 0 32.5 56" id="svg10639229754"><path d="M 29.156 50.105 C 29.156 51.733 27.836 53.053 26.208 53.053 L 7.368 53.053 C 5.741 53.053 4.421 51.733 4.421 50.105 L 4.421 27.941 C 4.421 13.693 12.119 5.434 27.513 3.163 C 28.385 3.035 29.156 3.721 29.156 4.602 L 29.156 14.079 C 29.156 14.873 28.525 15.518 27.735 15.597 C 21.182 16.25 17.55 19.855 16.841 26.413 C 16.751 27.244 17.426 27.941 18.262 27.941 L 26.208 27.941 C 27.836 27.941 29.156 29.261 29.156 30.889 Z" fill="#E8B561"></path></svg></defs><use href="#svg10639229754"></use></svg>