<svg xmlns="http://www.w3.org/2000/svg" width="512" height="512" viewBox="0 0 64 64"><g data-name="14-Money"><path fill="#a80132" d="M23 16.5a1.558 1.558 0 0 1 .087-.5 1.558 1.558 0 0 0-.087.5zm17.913-.5a1.558 1.558 0 0 1 .087.5 1.558 1.558 0 0 0-.087-.5zM24.42 17h15.16a1.427 1.427 0 0 0 1.333-1 1.427 1.427 0 0 0-1.333-1H24.42a1.427 1.427 0 0 0-1.333 1 1.427 1.427 0 0 0 1.333 1zm16.493-4a1.558 1.558 0 0 1 .087.5 1.558 1.558 0 0 0-.087-.5zM23 13.5a1.558 1.558 0 0 1 .087-.5 1.558 1.558 0 0 0-.087.5zm1.42.5h15.16a1.427 1.427 0 0 0 1.333-1 1.427 1.427 0 0 0-1.333-1H24.42a1.427 1.427 0 0 0-1.333 1 1.427 1.427 0 0 0 1.333 1z"/><path fill="#de8800" d="M22.338 3.27c.075.051.154.1.241.152l.112.062c.1.052.2.1.311.155l.1.047a12.566 12.566 0 0 0 2.5.75l.036.007c.26.053.531.1.815.15A34.413 34.413 0 0 0 32 5c5.52 0 9-1 10-2 0 0-2-2-10-2S22 3 22 3a2.3 2.3 0 0 0 .25.21c.027.02.059.04.088.06z"/><path fill="#ffc608" d="M23.1 3.686a1.561 1.561 0 0 1-.1-.047l.1.047zm-.409-.202-.112-.062.112.062zm-.353-.214c-.029-.02-.061-.04-.088-.06.027.02.059.04.088.06zm3.301 1.173-.039-.007zm.815.15L26.8 5.8a5.786 5.786 0 0 0 5.564 4.2h4.365a5.224 5.224 0 0 0 3.348-1.231L42 3c-1 1-4.48 2-10 2a34.413 34.413 0 0 1-5.546-.407zM37.06 18h-6.052A25.655 25.655 0 0 0 18 41c0 19 39 16 39 7 0-7.24-8.56-25.52-19.94-30z"/><path fill="#f09413" d="M22.579 3.422zm3.875 1.171c-.284-.046-.555-.1-.815-.15.261.057.531.104.815.15zM23 3.639zM22 3a2.3 2.3 0 0 0 .25.21A2.3 2.3 0 0 1 22 3zm3.6 1.436a12.566 12.566 0 0 1-2.5-.75 12.566 12.566 0 0 0 2.5.75z"/><path fill="#ff9c00" d="m63 25-3.33 1.67L58 30l-1.67-3.33L53 25l3.33-1.67L58 20l1.67 3.33zM11 13l-3.33 1.67L6 18l-1.67-3.33L1 13l3.33-1.67L6 8l1.67 3.33z"/><path fill="#f09413" d="M41.24 39.75A3.348 3.348 0 0 0 41 41v14.03c-.99.03-1.99.03-3-.02V44c0-1.66 1.24-3.16 3.24-4.25z"/><path fill="#a80132" d="M40.913 16a1.427 1.427 0 0 0-1.333-1A1.463 1.463 0 0 0 41 13.5a1.558 1.558 0 0 0-.087-.5 1.427 1.427 0 0 0-1.333-1H24.42a1.427 1.427 0 0 0-1.333 1 1.558 1.558 0 0 0-.087.5 1.463 1.463 0 0 0 1.42 1.5 1.427 1.427 0 0 0-1.333 1 1.558 1.558 0 0 0-.087.5 1.463 1.463 0 0 0 1.42 1.5h15.16A1.463 1.463 0 0 0 41 16.5a1.558 1.558 0 0 0-.087-.5z"/><path fill="#c97c10" d="M40.033 4.012A25.533 25.533 0 0 0 32 3a25.533 25.533 0 0 0-8.033 1.012A27.192 27.192 0 0 0 32 5a27.192 27.192 0 0 0 8.033-.988z"/><path fill="#7d0126" d="M38.16 15h1.42A1.463 1.463 0 0 0 41 13.5a1.558 1.558 0 0 0-.087-.5 1.427 1.427 0 0 1-1.333 1H24.42a1.427 1.427 0 0 1-1.333-1 1.558 1.558 0 0 0-.087.5 1.463 1.463 0 0 0 1.42 1.5zm-1.1 3h2.52A1.463 1.463 0 0 0 41 16.5a1.558 1.558 0 0 0-.087-.5 1.427 1.427 0 0 1-1.333 1H24.42a1.427 1.427 0 0 1-1.333-1 1.558 1.558 0 0 0-.087.5 1.463 1.463 0 0 0 1.42 1.5z"/><path fill="#f09413" d="M38.16 12H39l1.077-3.231A5.224 5.224 0 0 1 36.729 10h-4.365A5.786 5.786 0 0 1 26.8 5.8l-.346-1.21c-.284-.046-.555-.1-.815-.15l-.039-.004a12.566 12.566 0 0 1-2.5-.75 1.561 1.561 0 0 1-.1-.047 3.918 3.918 0 0 1-.311-.155l-.112-.062c-.087-.05-.166-.1-.241-.152-.029-.02-.061-.04-.088-.06A2.3 2.3 0 0 1 22 3l3 9z"/><path fill="#ff9c00" d="M18 41a25.655 25.655 0 0 1 13.008-23H26.94C15.56 22.48 7 40.76 7 48c0 8.28 11.19 15 25 15s25-6.72 25-15c0 9-39 12-39-7z"/><path fill="#ffc608" d="M44 8a1 1 0 0 1-.707-1.707l6-6a1 1 0 0 1 1.414 1.414l-6 6A1 1 0 0 1 44 8zm0 6a1 1 0 0 1-.556-1.832l12-8a1 1 0 1 1 1.11 1.664l-12 8A1 1 0 0 1 44 14zM20 8a1 1 0 0 1-.707-.293l-6-6A1 1 0 0 1 14.707.293l6 6A1 1 0 0 1 20 8zm0 6a1 1 0 0 1-.554-.168l-12-8a1 1 0 0 1 1.11-1.664l12 8A1 1 0 0 1 20 14z"/><path fill="#ffdf75" d="M36.056 40.91 33 39.382V31h2v1h2v-2a1 1 0 0 0-1-1h-3v-2h-2v2h-.674a5.326 5.326 0 0 0-2.382 10.09L31 40.618V49h-4v-1h-2v2a1 1 0 0 0 1 1h5v2h2v-2h.674a5.326 5.326 0 0 0 2.382-10.09zm-7.218-3.61a3.326 3.326 0 0 1 1.488-6.3H31v7.382zM33.674 49H33v-7.382l2.162 1.082a3.326 3.326 0 0 1-1.488 6.3z"/><path fill="#fa0" d="M33 51v.967a5.292 5.292 0 0 0 3.89-2.077A5.271 5.271 0 0 1 33.674 51zm-2 0h-5a1 1 0 0 1-1-1v-1h-1v2a1 1 0 0 0 1 1h5v2h2v-1h-1zm4-20h-2v1h1v1h2v-1h-1zm-4-2v-1h-1v1.033c.11-.007.214-.033.326-.033zm0 11.618-3.056-1.528a5.286 5.286 0 0 1-1.834-7.98 5.3 5.3 0 0 0 .834 8.98L30 41.618V49h1zm-3.467-8.085A3.3 3.3 0 0 1 29.326 32H30v5.882l1 .5V31h-.674a3.322 3.322 0 0 0-2.793 1.533zM37 45.674a3.308 3.308 0 0 0-1.838-2.974L33 41.618v1.5l1.162.581a3.312 3.312 0 0 1 1.3 4.768A3.322 3.322 0 0 0 37 45.674z"/><path fill="#ff9c00" d="M41 57V41a3.348 3.348 0 0 1 .24-1.25C39.24 40.84 38 42.34 38 44v16a3.843 3.843 0 0 0 .92 2.41 33.455 33.455 0 0 0 5.13-1.27C42.16 60.07 41 58.61 41 57z"/><path fill="#ffc052" d="M38.2 42.864A3.4 3.4 0 0 0 38 44v4.758a5.3 5.3 0 0 0 .2-5.894z"/><path fill="#ffcb52" d="M63 53v4c0 3.31-4.92 6-11 6s-11-2.69-11-6v-4c0 3.31 4.92 6 11 6s11-2.69 11-6z"/><path fill="#ffcb52" d="M63 45v4c0 3.31-4.92 6-11 6s-11-2.69-11-6v-4c0 3.31 4.92 6 11 6s11-2.69 11-6z"/><path fill="#f09413" d="M63 49v4c0 3.31-4.92 6-11 6s-11-2.69-11-6v-4c0 3.31 4.92 6 11 6s11-2.69 11-6z"/><path fill="#f09413" d="M63 41v4c0 3.31-4.92 6-11 6s-11-2.69-11-6v-4c0 3.31 4.92 6 11 6s11-2.69 11-6z"/><path fill="#ffc052" d="M63 41c0 3.31-4.92 6-11 6s-11-2.69-11-6 4.92-6 11-6 11 2.69 11 6zm-4 0c0-1.66-3.13-3-7-3s-7 1.34-7 3 3.13 3 7 3 7-1.34 7-3z"/><ellipse cx="52" cy="41" fill="#ffdf75" rx="7" ry="3"/><path fill="#c97c10" d="M59 41a1.241 1.241 0 0 1-.1.5c-.55-1.42-3.43-2.5-6.9-2.5s-6.35 1.08-6.9 2.5a1.241 1.241 0 0 1-.1-.5c0-1.66 3.13-3 7-3s7 1.34 7 3z"/><path fill="#de8800" d="M63 43v2c0 3.31-4.92 6-11 6a17.254 17.254 0 0 1-7-1.37c-2.44-1.1-4-2.77-4-4.63v-4c0 1.86 1.56 3.53 4 4.63a2.827 2.827 0 0 0 2.06 2.735A18.813 18.813 0 0 0 52 49c6.08 0 11-2.69 11-6z"/><path fill="#de8800" d="M63 47v2c0 3.31-4.92 6-11 6a17.254 17.254 0 0 1-7-1.37c-2.44-1.1-4-2.77-4-4.63v-4c0 1.86 1.56 3.53 4 4.63a2.827 2.827 0 0 0 2.06 2.735A18.813 18.813 0 0 0 52 53c6.08 0 11-2.69 11-6z"/><path fill="#de8800" d="M63 51v2c0 3.31-4.92 6-11 6a17.254 17.254 0 0 1-7-1.37c-2.44-1.1-4-2.77-4-4.63v-4c0 1.86 1.56 3.53 4 4.63a2.827 2.827 0 0 0 2.06 2.735A18.813 18.813 0 0 0 52 57c6.08 0 11-2.69 11-6z"/><path fill="#de8800" d="M63 55v2c0 3.31-4.92 6-11 6a17.254 17.254 0 0 1-7-1.37c-2.44-1.1-4-2.77-4-4.63v-4c0 1.86 1.56 3.53 4 4.63a2.827 2.827 0 0 0 2.06 2.735A18.813 18.813 0 0 0 52 61c6.08 0 11-2.69 11-6z"/></g></svg>