<svg xmlns="http://www.w3.org/2000/svg" width="512" height="512"><ellipse cx="256" cy="256" fill="#e88102" rx="245" ry="256"/><circle cx="256" cy="242.5" r="242.5" fill="#fdd835"/><g fill="#fff"><path d="M352.8 20.1 33.6 339.2c-10.7-24.5-17.4-51.1-19.4-79L273.7.6c27.9 2.1 54.5 8.8 79.1 19.5zm114.5 103.4L137 453.8c-20.6-11.6-39.2-26.1-55.5-43L424.4 68c16.8 16.2 31.3 34.9 42.9 55.5zm-52.8-64.6-342 342c-5.3-6.2-10.4-12.7-15.1-19.4L395.1 43.8c6.7 4.7 13.2 9.8 19.4 15.1zM490.9 182 195.5 477.4c-8.9-2.3-17.6-5.1-26.1-8.3l313.2-313.2c3.2 8.5 6 17.2 8.3 26.1z" opacity=".5"/><path d="M498.5 242.5c0 1.7 0 3.3-.1 5C495.8 115.9 388.3 10 256 10S16.2 115.9 13.6 247.5c0-1.7-.1-3.3-.1-5C13.5 108.6 122.1 0 256 0s242.5 108.6 242.5 242.5z" opacity=".5"/><path d="M453 253c0 104.9-85.1 190-190 190-58.9 0-111.6-26.9-146.5-69 34.7 37.5 84.3 61 139.5 61 104.9 0 190-85.1 190-190 0-46-16.3-88.1-43.5-121 31.3 33.9 50.5 79.2 50.5 129z" opacity=".5"/></g><circle cx="256" cy="245" r="190" fill="#f39e09"/><path fill="#e88102" d="M400 121c-33.3-28.7-76.6-46-124-46-104.9 0-190 85.1-190 190 0 47.4 17.3 90.7 46 124-40.4-34.9-66-86.4-66-144 0-104.9 85.1-190 190-190 57.5 0 109.1 25.6 144 66z"/><path fill="#db6704" d="M244.1 196.6c-3.4 3.9-5.2 9.3-5.2 16.2s2 12.6 6 16.7 10.4 8 19.2 11.8c8.8 3.7 17.1 7.6 24.9 11.6s14.5 8.6 20.2 13.7 10.1 11.1 13.3 17.9c1.2 2.6 4.8 7.5 4.8 7.5v17.1c0 16.2-5.1 29.4-15.4 39.6s-24.2 16.2-41.9 17.9V395h-22.6v-28.7c-20.6-2.2-36.4-9.2-47.5-21.2-11-12-16.5-27.7-16.5-47.3v-15l47.8 15c0 10.8 2.4 19 7.2 24.6s11.6 8.4 20.4 8.4c6.4 0 11.5-1.9 15.2-5.8s5.5-9.1 5.5-15.8c0-7.5-1.8-13.3-5.5-17.6s-10.2-8.3-19.4-12.1c-9.3-3.8-17.8-7.6-25.7-11.5s-14.6-8.4-20.3-13.5-10-11-13.1-17.7c-3-6.7-4.5-14.8-4.5-24.4v-15.9s8.9-16.7 16.2-23.6c10.8-10.4 25.2-16.4 43.1-18.1V125h22.6v30.5c17.3 2.6 30.9 9.7 40.8 21.4 6.8 8 14.8 29.5 14.8 29.5v15h-48c0-9.8-1.9-17.4-5.7-22.7s-9.2-7.9-16.2-7.9c-6.2-.1-11 1.9-14.5 5.8z"/><path fill="#fdd835" d="M279.5 294.3c0-7.5-1.8-13.3-5.5-17.6s-10.2-8.3-19.4-12.1c-9.3-3.8-17.8-7.6-25.7-11.5s-14.6-8.4-20.3-13.5-10-11-13.1-17.7c-3-6.7-4.5-14.9-4.5-24.4 0-16 5.4-29.2 16.2-39.5s25.2-16.4 43.1-18.1V110h22.6v30.5c17.3 2.6 30.9 9.7 40.8 21.4s14.8 26.5 14.8 44.5h-48c0-9.8-1.9-17.4-5.7-22.7s-9.2-7.9-16.2-7.9c-6.2 0-11.1 2-14.5 5.9s-5.2 9.3-5.2 16.2 2 12.6 6 16.7 10.4 8 19.1 11.8c8.8 3.7 17.1 7.6 24.9 11.6s14.5 8.6 20.2 13.7 10.1 11.1 13.3 17.9 4.8 15 4.8 24.5c0 16.2-5.1 29.4-15.4 39.6s-24.2 16.2-41.9 17.9V380h-22.6v-28.7c-20.6-2.2-36.4-9.2-47.5-21.2-11-12-16.5-27.7-16.5-47.3h47.8c0 10.8 2.4 19 7.2 24.6s11.6 8.4 20.4 8.4c6.4 0 11.5-1.9 15.2-5.8s5.6-9 5.6-15.7z"/><g fill="#fff"><path d="M207.2 158c5.8-5.6 12.7-9.9 20.6-13l-33.9 34c2.6-8 7-14.9 13.3-21zm55.6-48-12.5 12.5V110zm59.3 158.7-81.7 81.7c-17.2-2.9-30.7-9.7-40.4-20.2-6.3-6.9-10.8-15-13.5-24.3l23-23h21.8c0 10.8 2.4 19 7.2 24.6s11.6 8.4 20.4 8.4c6.4 0 11.5-1.9 15.2-5.8s5.5-9.1 5.5-15.8c0-7.5-1.8-13.3-5.5-17.6s-10.2-8.3-19.4-12.1c-6.6-2.7-12.8-5.4-18.7-8.2l29.6-29.6c8.3 3.6 16.1 7.2 23.5 11 7.8 4 14.5 8.6 20.2 13.7 5.4 5 9.7 10.7 12.8 17.2zm6.4-62.4H286l34.5-34.5c5.3 9.8 8 21.3 8 34.5zm-145 76.5h7.1l-6.8 6.8c-.2-2.2-.3-4.5-.3-6.8zm61.4-68.3c2 2.1 4.6 4.1 7.9 6.1l-29.6 29.6c-5.5-3.1-10.4-6.6-14.6-10.5-1.7-1.5-3.2-3.1-4.6-4.7l35.1-35.1c.3 6 2.3 10.9 5.8 14.6zm67.8-53.8-33.4 33.4c-.9-4.1-2.4-7.6-4.4-10.4-3-4.2-7-6.7-12-7.6l29.9-29.9c7.7 3.5 14.3 8.3 19.9 14.5zM258.4 380l11.6-11.6V380zm65.8-65.8c-2.5 7.4-6.6 13.8-12.2 19.4s-12.3 9.9-20.1 12.9z" opacity=".5"/><path d="M414.5 140.1c-123 43.2-221.8 138.1-270.2 258.6-4.2-3.1-8.3-6.3-12.3-9.8-28.7-33.3-46-76.6-46-123.9 0-104.9 85.1-190 190-190 47.4 0 90.7 17.3 123.9 46 5.3 6.1 10.1 12.5 14.6 19.1z" opacity=".25"/></g></svg>